<?xml version="1.0" encoding="UTF-8" standalone="no"?>
<!-- Generator: Adobe Illustrator 23.0.1, SVG Export Plug-In . SVG Version: 6.00 Build 0)  -->

<svg
   xmlns:dc="http://purl.org/dc/elements/1.1/"
   xmlns:cc="http://creativecommons.org/ns#"
   xmlns:rdf="http://www.w3.org/1999/02/22-rdf-syntax-ns#"
   xmlns:svg="http://www.w3.org/2000/svg"
   xmlns="http://www.w3.org/2000/svg"
   xmlns:sodipodi="http://sodipodi.sourceforge.net/DTD/sodipodi-0.dtd"
   xmlns:inkscape="http://www.inkscape.org/namespaces/inkscape"
   version="1.1"
   id="Layer_1"
   x="0px"
   y="0px"
   viewBox="0 0 59.828191 16"
   xml:space="preserve"
   sodipodi:docname="acsnano_logo.svg"
   width="59.828194"
   height="16"
   inkscape:version="0.92.4 (5da689c313, 2019-01-14)"><metadata
   id="metadata4699"><rdf:RDF><cc:Work
       rdf:about=""><dc:format>image/svg+xml</dc:format><dc:type
         rdf:resource="http://purl.org/dc/dcmitype/StillImage" /><dc:title></dc:title></cc:Work></rdf:RDF></metadata><defs
   id="defs4697" /><sodipodi:namedview
   pagecolor="#ffffff"
   bordercolor="#666666"
   borderopacity="1"
   objecttolerance="10"
   gridtolerance="10"
   guidetolerance="10"
   inkscape:pageopacity="0"
   inkscape:pageshadow="2"
   inkscape:window-width="2560"
   inkscape:window-height="1377"
   id="namedview4695"
   showgrid="false"
   fit-margin-top="0"
   fit-margin-left="0"
   fit-margin-right="0"
   fit-margin-bottom="0"
   inkscape:zoom="12.68591"
   inkscape:cx="47.265588"
   inkscape:cy="13.259602"
   inkscape:window-x="-8"
   inkscape:window-y="-8"
   inkscape:window-maximized="1"
   inkscape:current-layer="Layer_1" />
<style
   type="text/css"
   id="style4678">
	.st0{fill:#EF4136;}
	.st1{fill:#3B6E8F;}
</style>






<g
   id="g5251"
   transform="matrix(0.33687047,0,0,0.33687047,-70.301498,-132.7182)"><path
     id="path4680"
     d="m 223.33,417.77 v -0.09 c -2.85,-7.1 -3.17,-7.92 -3.42,-8.75 h -0.03 c -0.29,0.8 -0.64,1.66 -3.58,8.75 l -0.03,0.09 h 7.06 m -7.98,2.24 c -2.28,5.23 -2.63,6.12 -1.3,6.21 v 0.38 c -0.79,-0.03 -1.78,-0.03 -2.76,-0.03 -1.2,0 -2.03,0 -2.6,0.03 v -0.38 c 0.98,-0.09 1.43,-0.98 5.04,-9.17 l 6.09,-13.92 h 0.47 l 5.9,13.96 c 3.49,8.13 3.9,9.05 4.85,9.14 v 0.38 c -0.54,-0.03 -1.36,-0.03 -2.53,-0.03 -1.11,0 -2.22,0 -3.01,0.03 v -0.38 c 1.33,-0.09 0.92,-0.98 -1.24,-6.21 h -8.91 z"
     class="st0"
     inkscape:connector-curvature="0"
     style="fill:#ef4136" /><path
     id="path4682"
     d="m 225.78,414.99 c 0,-7.45 6.06,-11.76 13.74,-11.76 1.11,0 2.13,0.06 2.89,0.15 0.7,0.06 1.78,0.21 2.51,0.35 -0.1,1.48 -0.13,2.48 -0.19,3.96 h -0.38 c -0.22,-0.77 -0.67,-1.21 -1.27,-1.51 -0.76,-0.33 -2.06,-0.53 -3.55,-0.53 -6.32,0 -10.54,3.58 -10.54,9.4 0,5.7 4.41,9.43 10.25,9.43 1.36,0 2.63,-0.21 3.46,-0.53 0.67,-0.29 1.17,-0.65 1.49,-1.54 h 0.35 c 0,1.36 0,2.78 0.03,3.75 -0.51,0.15 -1.3,0.35 -2.03,0.47 -1.14,0.21 -2.25,0.29 -3.52,0.29 -7.36,0 -13.23,-4.46 -13.23,-11.91 v -0.02"
     class="st0"
     inkscape:connector-curvature="0"
     style="fill:#ef4136" /><path
     id="path4684"
     d="m 256.26,420.75 c 0,3.22 -2.67,6.12 -7.67,6.12 -1.66,0 -3.47,-0.35 -4.49,-0.74 0.1,-1.3 0.13,-2.42 0.16,-3.93 h 0.41 c 0.16,0.83 0.57,1.39 1.18,1.75 0.67,0.38 1.66,0.56 2.74,0.56 2.55,0 4.55,-1.39 4.55,-3.64 0,-1.36 -0.57,-2.45 -2.04,-3.58 -1.02,-0.77 -1.97,-1.42 -3.12,-2.27 -2.26,-1.66 -3.44,-3.28 -3.44,-5.68 0,-3.25 2.77,-6 7.29,-6 1.34,0 2.68,0.21 3.57,0.47 -0.06,1.27 -0.13,2.42 -0.16,3.78 h -0.38 c -0.13,-0.74 -0.51,-1.18 -1.02,-1.48 -0.48,-0.23 -1.21,-0.41 -1.94,-0.41 -2.45,0 -4.27,1.33 -4.27,3.46 0,1.21 0.54,2.19 1.53,3.04 0.86,0.8 1.91,1.48 3.31,2.51 2.2,1.57 3.79,3.22 3.79,6 v 0.04"
     class="st0"
     inkscape:connector-curvature="0"
     style="fill:#ef4136" /><path
     id="path4686"
     d="m 285.72,440.88 h -0.74 c -9.4,-10.96 -14.95,-16.96 -18.4,-20.99 -2.26,-2.61 -3.89,-4.47 -6.35,-7.62 h -0.05 v 12.98 c 0,13.33 0,14.9 2.12,15.04 v 0.64 c -1.33,-0.05 -2.81,-0.05 -4.38,-0.05 -1.77,0 -2.85,0 -3.98,0.05 v -0.59 c 2.12,-0.2 2.12,-1.77 2.12,-15.24 v -22.96 h 0.74 c 9.59,11.26 15.25,17.95 18.69,21.98 2.16,2.51 3.69,4.33 6,7.28 h 0.1 v -14.06 c 0,-12.49 0,-14.06 -2.16,-14.26 v -0.59 c 1.13,0 2.66,0.05 4.13,0.05 1.67,0 2.95,-0.05 4.03,-0.05 v 0.59 c -1.87,0.2 -1.87,1.77 -1.87,14.41 v 23.39"
     class="st1"
     inkscape:connector-curvature="0"
     style="fill:#3b6e8f" /><path
     id="path4688"
     d="m 306.7,426.23 v -0.15 c -4.43,-11.8 -4.92,-13.18 -5.31,-14.55 h -0.05 c -0.44,1.33 -0.98,2.75 -5.56,14.55 l -0.05,0.15 h 10.97 m -12.39,4.91 c -3.54,8.7 -4.08,9 -2.02,9.15 v 0.64 c -1.23,-0.05 -2.75,-0.05 -4.28,-0.05 -1.87,0 -1.98,0 -3.11,-0.03 l -0.03,-0.56 c 1.52,-0.15 1.33,-1.62 6.94,-15.24 l 9.45,-23.16 H 302 l 9.15,23.21 c 5.41,13.52 6.05,15.04 7.53,15.19 v 0.64 c -0.84,-0.05 -2.12,-0.05 -3.94,-0.05 -1.72,0 -3.44,0 -4.67,0.05 v -0.64 c 2.06,-0.15 1.42,-0.44 -1.92,-9.15 z"
     class="st1"
     inkscape:connector-curvature="0"
     style="fill:#3b6e8f" /><path
     id="path4690"
     d="m 347.13,441.37 h -0.74 C 337,430.41 331.44,423.92 328,419.89 c -2.27,-2.61 -3.89,-4.47 -6.35,-7.62 h -0.05 v 12.98 c 0,13.32 0,14.9 2.12,15.05 v 0.64 c -1.33,-0.05 -2.8,-0.05 -4.38,-0.05 -1.77,0 -2.85,0 -3.99,0.05 v -0.59 c 2.12,-0.2 2.12,-1.77 2.12,-15.24 v -22.96 h 0.74 c 9.59,11.26 15.25,17.95 18.69,21.98 2.16,2.51 3.69,4.33 6,7.28 h 0.1 v -14.06 c 0,-12.49 0,-14.06 -2.16,-14.26 v -0.59 c 1.13,0 2.66,0.05 4.13,0.05 1.67,0 2.95,-0.05 4.03,-0.05 v 0.59 c -1.87,0.2 -1.87,1.77 -1.87,14.4 v 23.88"
     class="st1"
     inkscape:connector-curvature="0"
     style="fill:#3b6e8f" /><path
     id="path4692"
     d="m 381.38,421.5 c 0,-8.75 -6.44,-15.39 -14.8,-15.39 -8.36,0 -14.75,6.69 -14.75,15.58 0,8.95 6.44,15.63 14.75,15.63 8.41,0 14.8,-6.59 14.8,-15.78 v -0.04 m 4.91,-0.14 c 0,11.26 -8.26,20.11 -19.96,20.11 -10.87,0 -19.47,-8.55 -19.47,-19.52 0,-11.55 8.7,-19.91 20.21,-19.91 11.01,0 19.22,8.21 19.22,19.27 z"
     class="st1"
     inkscape:connector-curvature="0"
     style="fill:#3b6e8f" /></g>
</svg>