<?xml version="1.0" encoding="UTF-8" standalone="no"?>
<!-- Created with Inkscape (http://www.inkscape.org/) -->

<svg
   xmlns:dc="http://purl.org/dc/elements/1.1/"
   xmlns:cc="http://creativecommons.org/ns#"
   xmlns:rdf="http://www.w3.org/1999/02/22-rdf-syntax-ns#"
   xmlns:svg="http://www.w3.org/2000/svg"
   xmlns="http://www.w3.org/2000/svg"
   xmlns:sodipodi="http://sodipodi.sourceforge.net/DTD/sodipodi-0.dtd"
   xmlns:inkscape="http://www.inkscape.org/namespaces/inkscape"
   width="13.641383mm"
   height="4.2333298mm"
   viewBox="0 0 13.641383 4.2333298"
   version="1.1"
   id="svg8"
   inkscape:version="0.92.4 (5da689c313, 2019-01-14)"
   sodipodi:docname="bioRxiv_logo.svg">
  <defs
     id="defs2" />
  <sodipodi:namedview
     id="base"
     pagecolor="#ffffff"
     bordercolor="#666666"
     borderopacity="1.0"
     inkscape:pageopacity="0.0"
     inkscape:pageshadow="2"
     inkscape:zoom="8"
     inkscape:cx="-9.3058275"
     inkscape:cy="-26.34045"
     inkscape:document-units="mm"
     inkscape:current-layer="layer1"
     showgrid="false"
     fit-margin-top="0"
     fit-margin-left="0"
     fit-margin-right="0"
     fit-margin-bottom="0"
     inkscape:window-width="2560"
     inkscape:window-height="1377"
     inkscape:window-x="-8"
     inkscape:window-y="-8"
     inkscape:window-maximized="1" />
  <metadata
     id="metadata5">
    <rdf:RDF>
      <cc:Work
         rdf:about="">
        <dc:format>image/svg+xml</dc:format>
        <dc:type
           rdf:resource="http://purl.org/dc/dcmitype/StillImage" />
        <dc:title></dc:title>
      </cc:Work>
    </rdf:RDF>
  </metadata>
  <g
     inkscape:label="Layer 1"
     inkscape:groupmode="layer"
     id="layer1"
     transform="translate(-8.243926,-289.95324)">
    <g
       id="g4653"
       transform="matrix(0.02867514,0,0,0.02867514,15.217813,283.33657)">
      <path
         id="path4562"
         d="m 45.554396,377.91331 c -0.92152,-0.74647 -1.19563,-1.57867 -1.18092,-3.58541 0.0188,-2.55027 0.79616,-5.21596 2.63734,-9.04256 3.43483,-7.13873 10.69192,-17.46676 19.67656,-28.003 1.87085,-2.19392 2.85253,-3.55245 2.77226,-3.83645 -0.14899,-0.52727 -6.82581,-16.95683 -9.31633,-22.92466 -2.23845,-5.36375 -4.86759,-10.54206 -6.36135,-12.52921 -2.12635,-2.82869 -4.24833,-3.72641 -8.85383,-3.74569 -1.24201,-0.005 -2.53675,-0.15575 -2.89174,-0.33624 -0.93948,-0.47771 -1.35876,-1.68658 -0.98197,-2.83121 0.72781,-2.21092 4.78404,-3.44864 11.28204,-3.44262 6.10934,0.006 9.54845,1.26233 12.96459,4.73737 3.17542,3.23019 3.95668,4.76707 11.26222,22.15548 3.54391,8.4351 3.70576,8.75796 4.17756,8.33438 0.74348,-0.66747 6.20125,-8.0104 8.29212,-11.15627 3.48203,-5.23898 7.95028,-12.81396 11.315104,-19.1823 1.65743,-3.13691 2.25964,-3.94502 3.37058,-4.52305 0.85016,-0.44233 2.41625,-0.48486 3.16179,-0.0859 1.25775,0.67313 1.66643,3.93845 0.87617,7.00072 -0.48159,1.86625 -2.92708,7.02735 -5.04288,10.64282 -3.469724,5.929 -10.378334,15.55961 -15.919394,22.19156 l -2.90439,3.47618 6.03835,14.91236 c 7.00167,17.29139 8.91908,21.36425 11.077604,23.53047 1.65327,1.65918 2.81734,2.09751 5.57017,2.09751 2.23197,0 3.87556,0.45952 4.50477,1.25945 1.53728,1.95433 -0.51203,4.02381 -4.90625,4.95461 -2.21925,0.47009 -8.735964,0.53299 -10.764154,0.1039 -4.88302,-1.03306 -8.36179,-4.38397 -11.92239,-11.48419 -1.90818,-3.80509 -2.29108,-4.71369 -6.52444,-15.48165 -1.97602,-5.02618 -3.66617,-9.19337 -3.75589,-9.26042 -0.18796,-0.14045 -2.93439,3.03969 -5.23351,6.05994 -3.65369,4.79966 -8.6741,12.95063 -14.59686,23.69888 -1.51836,2.75543 -3.15158,5.40457 -3.62936,5.88698 -0.76502,0.77238 -1.03349,0.87639 -2.24896,0.8712 -0.90644,-0.004 -1.57398,-0.16281 -1.94461,-0.46302 z"
         style="fill:#231f20;fill-opacity:1;stroke:none;stroke-width:0.26458332"
         inkscape:connector-curvature="0" />
      <path
         id="path4560"
         d="m 197.06355,351.03463 c -1.52797,-0.90183 -3.4925,-2.10699 -4.36563,-2.67811 -2.32563,-1.52124 -5.69119,-4.99078 -6.93401,-7.14826 -0.5868,-1.01865 -2.94243,-5.95974 -5.23476,-10.98021 -5.24621,-11.48984 -7.78216,-17.02835 -10.78201,-23.54792 -1.30569,-2.83765 -2.97127,-6.52859 -3.70125,-8.20208 -2.43475,-5.58162 -4.3492,-7.82233 -8.95133,-10.47685 -2.05145,-1.18326 -2.09976,-1.23464 -2.09976,-2.23238 v -1.02124 l 8.26823,-0.0801 8.26822,-0.0801 1.62307,-0.75002 c 0.8927,-0.41251 1.90349,-0.71016 2.24623,-0.66146 0.52789,0.075 0.65233,0.29076 0.81415,1.41148 0.30699,2.12628 0.89733,3.57421 6.96222,17.07647 3.16748,7.05179 7.55801,16.82466 9.75669,21.71748 2.19872,4.89283 4.10152,8.94095 4.22847,8.99584 0.12694,0.0549 1.03193,-1.62662 2.0111,-3.73667 0.97914,-2.11005 4.55022,-9.78958 7.9357,-17.06562 3.3855,-7.27605 6.44826,-13.99976 6.80616,-14.94159 1.78539,-4.69846 1.23968,-7.26307 -1.8938,-8.90038 -1.42428,-0.74422 -1.4627,-0.79381 -1.46331,-1.88876 v -1.12448 h 10.98021 c 6.03911,0 10.98021,0.0352 10.98021,0.0783 0,0.0431 -1.55805,3.34706 -3.46234,7.34218 -1.90428,3.99513 -6.54005,13.75277 -10.30168,21.68365 -16.13628,34.02106 -18.39654,38.72213 -18.64744,38.78459 -0.14552,0.0362 -1.51474,-0.672 -3.04271,-1.57384 z"
         style="fill:#231f20;fill-opacity:1;stroke:none;stroke-width:0.26458332"
         inkscape:connector-curvature="0" />
      <path
         id="path4558"
         transform="scale(0.26458333)"
         d="m -850.25781,965.10547 c -1.86214,0 -4.49249,1.13894 -6.74414,2.91797 -5.84357,4.61703 -9.74695,5.22906 -36.94141,5.80468 l -25.25,0.53516 v 4.3711 c 0,2.40427 0.42969,4.37109 0.95508,4.37109 0.52539,0 3.41537,2.40259 6.42187,5.33789 4.57372,4.46536 5.80974,6.46585 7.56446,12.25004 2.09367,6.9011 2.09647,7.1606 1.82812,151.4121 l -0.26953,144.5 -2.40625,4.8886 c -1.72944,3.5136 -3.76853,5.7363 -7.25,7.9004 -4.35734,2.7087 -4.84375,3.3779 -4.84375,6.6621 v 3.6504 l 23.75,3.2207 c 21.3614,2.8973 35.08128,4.5198 46.75,5.5293 8.37827,0.7249 46.33092,0.3853 53.5,-0.4785 63.1748,-7.6115 107.73856,-39.9467 123.85938,-89.873 5.57658,-17.2707 6.62644,-24.564 6.61132,-46 -0.0134,-21.8561 -1.12766,-29.0785 -7.16992,-46.4375 -6.41163,-18.4202 -14.42873,-31.0725 -28.23633,-44.5625 -21.60642,-21.1096 -46.20613,-30.9561 -77.40625,-30.9864 -13.83144,-0.013 -30.64078,2.423 -36.60351,5.3047 -1.5535,0.7508 -8.30499,10.4238 -18.5,26.5059 l -16.05469,25.3242 -0.25586,-81.0742 -0.25586,-81.07423 z m 54.59375,150.86723 c 8.08879,0.01 16.17185,0.9161 22.4707,2.7304 15.87016,4.5713 30.53611,16.1351 38.69531,30.5117 15.77371,27.7935 16.32872,70.811 1.25782,97.3907 -9.91268,17.4823 -27.08033,30.0077 -49.45313,36.08 -4.05808,1.1015 -11.34026,1.7386 -22.5,1.9688 -16.34158,0.3369 -20.69095,-0.053 -34.75,-3.1094 l -7.25,-1.5761 v -74.2696 -74.2695 l 11.75,-5.5899 c 6.4625,-3.074 14.23629,-6.2986 17.27344,-7.166 6.32387,-1.8058 14.41706,-2.7066 22.50586,-2.7011 z"
         style="fill:#231f20;fill-opacity:1;stroke:none;stroke-width:0.99999994"
         inkscape:connector-curvature="0" />
      <path
         id="path4554"
         transform="scale(0.26458333)"
         d="m -328.57227,1070.3066 c -26.4019,-0.2388 -45.58306,3.8772 -67.22265,14.2286 -33.68103,16.1113 -56.80623,41.7351 -67.77344,75.0957 -12.96529,39.4385 -6.19246,84.6943 17.42774,116.4394 6.9476,9.3374 21.50828,23.2678 30.60156,29.2793 16.99952,11.2382 37.24261,19.1103 57.08789,22.1992 13.44888,2.0934 34.97862,1.9149 48.4082,-0.4004 43.01442,-7.4158 80.6015,-33.8477 99.12109,-69.705 12.69724,-24.5842 17.50579,-53.6616 13.23243,-80.0098 -7.5059,-46.2791 -41.0366,-86.2276 -84.50391,-100.6797 -13.5842,-4.5165 -21.68125,-5.7701 -41,-6.3418 -1.82718,-0.054 -3.61878,-0.09 -5.37891,-0.1055 z m -6.1914,41.3633 c 13.32022,0.039 26.65577,3.2721 37.32422,9.6153 19.10522,11.3595 33.26455,33.7502 39.4082,62.3203 2.06344,9.5956 1.74705,37.4449 -0.52344,46 -7.47769,28.1756 -28.42085,49.3231 -54.91211,55.4511 -38.16132,8.8276 -71.33044,-9.1192 -87.4375,-47.3105 -20.25505,-48.0266 -6.18815,-98.9718 32.76368,-118.6621 9.88327,-4.9961 21.62381,-7.4486 33.37695,-7.4141 z"
         style="fill:#231f20;fill-opacity:1;stroke:none;stroke-width:0.99999994"
         inkscape:connector-curvature="0" />
      <path
         id="path4550"
         d="m -162.76986,348.8752 c 6e-5,-0.94697 0.1032,-1.11985 0.93546,-1.56805 1.40737,-0.75793 2.88647,-2.51503 3.59295,-4.26829 l 0.63103,-1.56602 v -23.94479 c 0,-21.95645 -0.038,-24.06755 -0.45788,-25.42307 -0.51201,-1.653 -2.07416,-3.61667 -3.68719,-4.63493 -0.89938,-0.56776 -1.0143,-0.75984 -1.0143,-1.69532 v -1.05502 h 6.58671 c 5.83658,0 6.7816,-0.0602 8.29788,-0.52852 0.94114,-0.29069 2.02397,-0.77458 2.40629,-1.07531 0.44157,-0.34734 0.98659,-0.51646 1.4942,-0.46366 l 0.79909,0.0831 0.0154,28.31042 c 0.009,16.96522 0.11825,28.93625 0.27208,29.8721 0.14118,0.85893 0.50381,2.13612 0.80584,2.8382 0.55968,1.30103 2.33992,3.17495 3.53239,3.71827 0.53701,0.24468 0.66098,0.49073 0.66098,1.31192 v 1.01075 l -12.43549,0.0713 -12.43549,0.0713 7e-5,-1.06431 z"
         style="fill:#231f20;fill-opacity:1;stroke:none;stroke-width:0.26458332"
         inkscape:connector-curvature="0" />
      <path
         id="path4548"
         d="m 124.81026,349.87336 c -0.0122,-0.0364 -0.032,-0.48847 -0.0441,-1.00465 -0.0198,-0.8431 0.11544,-1.03111 1.3303,-1.84924 0.74377,-0.50089 1.71508,-1.43794 2.15842,-2.08233 1.63099,-2.37056 1.60451,-1.91528 1.60451,-27.58395 0,-15.80305 -0.0929,-23.78008 -0.28744,-24.68726 -0.36505,-1.70218 -1.62558,-3.58154 -3.15214,-4.69958 -0.65485,-0.4796 -1.31742,-0.97367 -1.47236,-1.09793 -0.15494,-0.12426 -0.23122,-0.65856 -0.16949,-1.18732 l 0.11224,-0.96139 h 6.39775 c 6.97424,0 8.61701,-0.22946 10.42155,-1.45568 0.54377,-0.36949 1.35159,-0.66098 1.83181,-0.66098 h 0.8591 l 0.0717,29.69948 c 0.0674,27.91811 0.10017,29.76296 0.54695,30.75781 0.80687,1.79678 1.76604,2.973 3.26784,4.00733 1.31172,0.90342 1.43478,1.07255 1.36295,1.87319 l -0.079,0.8801 -12.36927,0.0593 c -6.8031,0.0326 -12.3792,0.0295 -12.39131,-0.007 z"
         style="fill:#231f20;fill-opacity:1;stroke:none;stroke-width:0.26458332"
         inkscape:connector-curvature="0" />
      <path
         id="path4546"
         d="m -38.415624,348.77757 c 0,-0.85514 0.103619,-1.05566 0.611362,-1.1831 2.104178,-0.52811 4.08827,-3.18146 4.874332,-6.5185 0.434609,-1.84504 0.467431,-4.4646 0.467431,-37.30625 0,-39.55124 0.08518,-37.69054 -1.868302,-40.81359 -0.881116,-1.40865 -2.921958,-3.10725 -3.733308,-3.10725 -0.233712,0 -0.351515,-0.35468 -0.351515,-1.05833 v -1.05834 h 18.37499 c 19.94627041,0 22.0653204,0.11604 26.7723004,1.46601 1.28998,0.36997 3.5360396,1.25207 4.9912496,1.96023 6.01685,2.92804 9.72659,7.00221 11.69662,12.84564 0.66244,1.96493 0.71411,2.4391 0.72075,6.61458 0.007,4.23626 -0.0363,4.62875 -0.73911,6.74688 -2.55702,7.70581 -9.41137,14.31827 -18.1072996,17.46829 -1.03296,0.37418 -1.61965,0.7259 -1.54319,0.92515 0.13906,0.3624 17.2845496,21.95129 19.8234496,24.96088 4.59713,5.44939 13.05912,12.58061 20.69253,17.43833 l 2.64584,1.68374 -10.45105,-0.10666 c -11.64034,-0.11879 -12.20623,-0.18917 -15.875,-1.97424 -2.90528,-1.4136 -5.44063,-4.11507 -14.8997996,-15.87602 -7.6281,-9.48432 -8.54261,-10.74021 -14.62379,-20.08285 -3.5677704,-5.48122 -6.5105104,-10.09356 -6.5394404,-10.24964 -0.0289,-0.15609 0.24506,-0.32443 0.60887,-0.3741 2.25795,-0.30827 6.3341504,-1.26979 8.6389904,-2.03781 8.83835,-2.94513 13.62369,-7.68168 14.63968,-14.49042 0.70813,-4.74556 -0.99989,-9.64846 -4.38449,-12.5858 -2.72252,-2.36276 -7.41034,-4.01344 -11.39788,-4.01344 -2.40464,0 -8.6024504,0.77182 -9.0294604,1.12444 -0.27802,0.22959 -0.32488,6.81574 -0.24883,34.96724 0.0837,30.97804 0.13989,34.87455 0.52586,36.46414 0.87536,3.60504 2.38932,5.83323 4.57378,6.73153 1.09867,0.4518 1.17835,0.55157 1.17927,1.47672 l 9.9e-4,0.99219 h -14.022913 -14.022917 z"
         style="fill:#bd2736;fill-opacity:1;stroke:none;stroke-width:0.26458332"
         inkscape:connector-curvature="0" />
      <path
         id="path4544"
         d="m -154.07543,278.0379 c -4.31311,-1.50956 -6.79955,-5.30946 -6.52019,-9.96445 0.14466,-2.41041 0.92599,-4.11727 2.6322,-5.75018 4.05194,-3.87787 10.09193,-3.8154 13.79424,0.14267 1.58635,1.69594 2.30687,3.35388 2.49039,5.73046 0.54055,7.00026 -5.90172,12.11469 -12.39664,9.8415 z"
         style="fill:#231f20;fill-opacity:1;stroke:none;stroke-width:0.26458332"
         inkscape:connector-curvature="0" />
      <path
         id="path4540"
         d="m 134.07401,278.27251 c -1.76395,-0.47561 -3.45906,-1.55759 -4.83124,-3.0838 -1.65174,-1.83714 -2.37834,-3.7954 -2.40501,-6.48185 -0.0188,-1.8857 0.0754,-2.31814 0.84423,-3.87997 1.35811,-2.75868 3.63858,-4.43972 6.96325,-5.13294 2.10553,-0.43901 3.28398,-0.34175 5.4006,0.44574 4.02042,1.49581 6.64707,6.42315 5.69182,10.67734 -1.25682,5.59722 -6.38892,8.8777 -11.66365,7.45548 z"
         style="fill:#231f20;fill-opacity:1;stroke:none;stroke-width:0.26458332"
         inkscape:connector-curvature="0" />
    </g>
  </g>
</svg>
