<?xml version="1.0" encoding="UTF-8" standalone="no"?>
<!-- Created with Inkscape (http://www.inkscape.org/) -->

<svg
   xmlns:dc="http://purl.org/dc/elements/1.1/"
   xmlns:cc="http://creativecommons.org/ns#"
   xmlns:rdf="http://www.w3.org/1999/02/22-rdf-syntax-ns#"
   xmlns:svg="http://www.w3.org/2000/svg"
   xmlns="http://www.w3.org/2000/svg"
   xmlns:sodipodi="http://sodipodi.sourceforge.net/DTD/sodipodi-0.dtd"
   xmlns:inkscape="http://www.inkscape.org/namespaces/inkscape"
   width="210mm"
   height="297mm"
   viewBox="0 0 210 297"
   version="1.1"
   id="svg8"
   inkscape:version="0.92.4 (5da689c313, 2019-01-14)"
   sodipodi:docname="letterhead-imec2.svg">
  <defs
     id="defs2" />
  <sodipodi:namedview
     id="base"
     pagecolor="#ffffff"
     bordercolor="#666666"
     borderopacity="1.0"
     inkscape:pageopacity="0.0"
     inkscape:pageshadow="2"
     inkscape:zoom="0.7"
     inkscape:cx="-21.455721"
     inkscape:cy="589.47666"
     inkscape:document-units="mm"
     inkscape:current-layer="layer1"
     showgrid="false"
     inkscape:window-width="2560"
     inkscape:window-height="1377"
     inkscape:window-x="-8"
     inkscape:window-y="-8"
     inkscape:window-maximized="1" />
  <metadata
     id="metadata5">
    <rdf:RDF>
      <cc:Work
         rdf:about="">
        <dc:format>image/svg+xml</dc:format>
        <dc:type
           rdf:resource="http://purl.org/dc/dcmitype/StillImage" />
        <dc:title></dc:title>
      </cc:Work>
    </rdf:RDF>
  </metadata>
  <g
     inkscape:label="Layer 1"
     inkscape:groupmode="layer"
     id="layer1">
    <g
       transform="matrix(0.29406344,0,0,0.29406344,50.768731,-3.2173823)"
       id="layer1-4"
       inkscape:label="Layer 1"
       style="stroke-width:3.4006269">
      <g
         id="g921"
         transform="matrix(0.26458333,0,0,0.26458333,-112.48979,33.658447)"
         style="stroke-width:3.4006269">
        <path
           id="path905"
           d="m 116,86.6 h -13.8 c -1.8,0 -3.1,1.3 -3.1,3.1 v 13.8 c 0,1.8 1.3,3.1 3.1,3.1 H 116 c 1.8,0 3.1,-1.3 3.1,-3.1 V 89.7 c 0,-1.8 -1.2,-3.1 -3.1,-3.1 z"
           class="st0"
           inkscape:connector-curvature="0"
           style="fill:#3f98bd;stroke-width:3.4006269" />
        <g
           id="g919"
           style="stroke-width:3.4006269">
          <path
             id="path907"
             d="m 364.5,116.8 c -23.8,0 -34.8,12.7 -34.8,40.2 0,28.3 11.8,39.8 38.9,39.8 7.8,0 14.8,-1 21.4,-2.4 1.3,-0.3 2.1,-1.4 2.1,-2.9 V 181 c 0,-1.9 -1.1,-2.5 -2.9,-2.2 -7.3,1.3 -12.2,2.1 -19.4,2.1 -14,0 -20.3,-3.5 -21.3,-17.3 h 45.9 c 2.2,0 3.2,-1 3.2,-3.2 v -0.3 c 0.1,-30.6 -9.6,-43.3 -33.1,-43.3 z m -15.8,34 c 0.6,-13.7 5.6,-18.3 16,-18.3 10,0 14.4,4.6 15.2,18.3 z"
             class="st1"
             inkscape:connector-curvature="0"
             style="fill:#3c3c3b;stroke-width:3.4006269" />
          <path
             id="path909"
             d="m 191.1,180.3 c -1.2,0.2 -3.3,0.5 -5.8,0.5 -6.2,0 -8.5,-2 -8.5,-12.8 v -48.5 c 0,-1.6 -1,-2.6 -2.6,-2.6 h -13.8 c -1.6,0 -2.6,1 -2.6,2.6 v 50.9 c 0,20 7.1,26.5 23.5,26.5 4.6,0 8.5,-0.5 10.2,-0.8 2,-0.3 2.5,-1.6 2.5,-3 v -10.7 c -0.1,-1.8 -1.1,-2.5 -2.9,-2.1 z"
             class="st1"
             inkscape:connector-curvature="0"
             style="fill:#3c3c3b;stroke-width:3.4006269" />
          <path
             id="path911"
             d="m 291,116.8 c -4.6,0 -8.5,0.5 -10.2,0.8 -2,0.3 -2.5,1.6 -2.5,3 v 10.7 c 0,1.8 1,2.5 2.8,2.1 1.2,-0.2 3.3,-0.5 5.8,-0.5 6.2,0 8.5,2 8.5,12.8 v 48.5 c 0,1.6 1,2.6 2.6,2.6 h 13.8 c 1.6,0 2.6,-1 2.6,-2.6 v -50.9 c 0.1,-20.1 -7,-26.5 -23.4,-26.5 z"
             class="st1"
             inkscape:connector-curvature="0"
             style="fill:#3c3c3b;stroke-width:3.4006269" />
          <path
             id="path913"
             d="m 247.7,116.8 c -4.6,0 -8.5,0.5 -10.2,0.8 -2,0.3 -2.5,1.6 -2.5,3 v 10.7 c 0,1.8 1,2.5 2.8,2.1 1.2,-0.2 3.3,-0.5 5.8,-0.5 6.2,0 8.5,2 8.5,12.8 v 48.5 c 0,1.6 1,2.6 2.6,2.6 h 13.8 c 1.6,0 2.6,-1 2.6,-2.6 v -50.9 c 0.1,-20.1 -7,-26.5 -23.4,-26.5 z"
             class="st1"
             inkscape:connector-curvature="0"
             style="fill:#3c3c3b;stroke-width:3.4006269" />
          <path
             id="path915"
             d="m 204.8,116.8 c -4.6,0 -8.5,0.5 -10.2,0.8 -2,0.3 -2.5,1.6 -2.5,3 v 10.7 c 0,1.8 1,2.5 2.8,2.1 1.2,-0.2 3.3,-0.5 5.8,-0.5 6.2,0 8.5,2 8.5,12.8 v 48.5 c 0,1.6 1,2.6 2.6,2.6 h 13.8 c 1.6,0 2.6,-1 2.6,-2.6 v -50.9 c 0.1,-20.1 -7,-26.5 -23.4,-26.5 z"
             class="st1"
             inkscape:connector-curvature="0"
             style="fill:#3c3c3b;stroke-width:3.4006269" />
          <path
             id="path917"
             d="m 464.8,179.9 c -5.2,0.6 -8.6,1 -12.5,1 -15.6,0 -20.3,-4.4 -20.3,-24 0,-19.5 4.9,-24 20.2,-24 4,0 7.6,0.3 12.9,0.9 1.7,0.2 2.9,-0.3 2.9,-2.4 v -10 c 0,-1.4 -0.8,-2.5 -2.2,-2.9 -4.9,-1.1 -10.6,-1.7 -16.7,-1.7 -25.6,0 -35.9,11.6 -35.9,40 0,28.4 10.3,40 35.9,40 6.2,0 11.7,-0.6 16.7,-1.7 1.4,-0.3 2.2,-1.4 2.2,-2.9 v -10 c -0.2,-2 -1.5,-2.5 -3.2,-2.3 z"
             class="st1"
             inkscape:connector-curvature="0"
             style="fill:#3c3c3b;stroke-width:3.4006269" />
        </g>
      </g>
    </g>
    <g
       id="g1504"
       transform="translate(16.931549,85.906215)">
      <path
         sodipodi:nodetypes="cc"
         inkscape:connector-curvature="0"
         id="path989"
         d="M 167.66845,179.22169 H 8.4684523"
         style="fill:none;stroke:#3c3c3b;stroke-width:0.48385707;stroke-linecap:butt;stroke-linejoin:miter;stroke-miterlimit:4;stroke-dasharray:none;stroke-opacity:1" />
      <g
         id="g1593"
         transform="translate(8.4684523,-85.041869)">
        <text
           id="text1567"
           y="270.91965"
           x="-0.32039386"
           style="font-style:normal;font-variant:normal;font-weight:bold;font-stretch:normal;font-size:3.52777767px;line-height:1.25;font-family:'CMU Sans Serif';-inkscape-font-specification:'CMU Sans Serif, Bold';font-variant-ligatures:normal;font-variant-caps:normal;font-variant-numeric:normal;font-feature-settings:normal;text-align:start;letter-spacing:0px;word-spacing:0px;writing-mode:lr-tb;text-anchor:start;fill:#000000;fill-opacity:1;stroke:none;stroke-width:0.26458332"
           xml:space="preserve"><tspan
             style="font-style:normal;font-variant:normal;font-weight:bold;font-stretch:normal;font-size:3.52777767px;font-family:'CMU Sans Serif';-inkscape-font-specification:'CMU Sans Serif, Bold';font-variant-ligatures:normal;font-variant-caps:normal;font-variant-numeric:normal;font-feature-settings:normal;text-align:start;writing-mode:lr-tb;text-anchor:start;stroke-width:0.26458332"
             y="270.91965"
             x="-0.32039386"
             id="tspan1565"
             sodipodi:role="line">IMEC vzw</tspan></text>
        <text
           id="text1571"
           y="276.58929"
           x="-0.144694"
           style="font-style:normal;font-variant:normal;font-weight:500;font-stretch:normal;font-size:3.52777767px;line-height:1.25;font-family:'CMU Sans Serif';-inkscape-font-specification:'CMU Sans Serif, Medium';font-variant-ligatures:normal;font-variant-caps:normal;font-variant-numeric:normal;font-feature-settings:normal;text-align:start;letter-spacing:0px;word-spacing:0px;writing-mode:lr-tb;text-anchor:start;fill:#000000;fill-opacity:1;stroke:none;stroke-width:0.26458332"
           xml:space="preserve"><tspan
             style="stroke-width:0.26458332"
             y="276.58929"
             x="-0.144694"
             id="tspan1569"
             sodipodi:role="line">Kapeldreef 75</tspan><tspan
             id="tspan1573"
             style="stroke-width:0.26458332"
             y="280.99902"
             x="-0.144694"
             sodipodi:role="line">3001 Leuven</tspan><tspan
             id="tspan1575"
             style="stroke-width:0.26458332"
             y="285.40875"
             x="-0.144694"
             sodipodi:role="line">Belgium</tspan></text>
      </g>
      <text
         xml:space="preserve"
         style="font-style:normal;font-variant:normal;font-weight:500;font-stretch:normal;font-size:3.52777767px;line-height:1.25;font-family:'CMU Sans Serif';-inkscape-font-specification:'CMU Sans Serif, Medium';font-variant-ligatures:normal;font-variant-caps:normal;font-variant-numeric:normal;font-feature-settings:normal;text-align:end;letter-spacing:0px;word-spacing:0px;writing-mode:lr-tb;text-anchor:end;fill:#000000;fill-opacity:1;stroke:none;stroke-width:0.26458332"
         x="167.82004"
         y="191.54742"
         id="text1579"><tspan
           sodipodi:role="line"
           id="tspan1577"
           x="167.82004"
           y="191.54742"
           style="font-style:normal;font-variant:normal;font-weight:500;font-stretch:normal;font-size:3.52777767px;font-family:'CMU Sans Serif';-inkscape-font-specification:'CMU Sans Serif, Medium';font-variant-ligatures:normal;font-variant-caps:normal;font-variant-numeric:normal;font-feature-settings:normal;text-align:end;writing-mode:lr-tb;text-anchor:end;stroke-width:0.26458332">Register of Legal Entities Leuven</tspan><tspan
           sodipodi:role="line"
           x="167.82004"
           y="195.95715"
           style="font-style:normal;font-variant:normal;font-weight:500;font-stretch:normal;font-size:3.52777767px;font-family:'CMU Sans Serif';-inkscape-font-specification:'CMU Sans Serif, Medium';font-variant-ligatures:normal;font-variant-caps:normal;font-variant-numeric:normal;font-feature-settings:normal;text-align:end;writing-mode:lr-tb;text-anchor:end;stroke-width:0.26458332"
           id="tspan1581">VAT: BE 0425.260.668</tspan><tspan
           sodipodi:role="line"
           x="167.82004"
           y="200.36687"
           style="font-style:normal;font-variant:normal;font-weight:500;font-stretch:normal;font-size:3.52777767px;font-family:'CMU Sans Serif';-inkscape-font-specification:'CMU Sans Serif, Medium';font-variant-ligatures:normal;font-variant-caps:normal;font-variant-numeric:normal;font-feature-settings:normal;text-align:end;writing-mode:lr-tb;text-anchor:end;stroke-width:0.26458332"
           id="tspan1583">Phone: +32 16 28 12 11</tspan></text>
    </g>
  </g>
  <style
     id="style903"
     type="text/css">
	.st0{fill:#3F98BD;}
	.st1{fill:#3C3C3B;}
</style>
</svg>
