<?xml version="1.0" encoding="UTF-8" standalone="no"?>
<!-- Generator: Adobe Illustrator 23.0.1, SVG Export Plug-In . SVG Version: 6.00 Build 0)  -->

<svg
   xmlns:dc="http://purl.org/dc/elements/1.1/"
   xmlns:cc="http://creativecommons.org/ns#"
   xmlns:rdf="http://www.w3.org/1999/02/22-rdf-syntax-ns#"
   xmlns:svg="http://www.w3.org/2000/svg"
   xmlns="http://www.w3.org/2000/svg"
   xmlns:sodipodi="http://sodipodi.sourceforge.net/DTD/sodipodi-0.dtd"
   xmlns:inkscape="http://www.inkscape.org/namespaces/inkscape"
   version="1.1"
   id="Layer_1"
   x="0px"
   y="0px"
   viewBox="0 0 78.799337 12"
   xml:space="preserve"
   sodipodi:docname="nanoscale_logo.svg"
   width="59.099506pt"
   height="9pt"
   inkscape:version="0.92.5 (2060ec1f9f, 2020-04-08)"><metadata
   id="metadata4699"><rdf:RDF><cc:Work
       rdf:about=""><dc:format>image/svg+xml</dc:format><dc:type
         rdf:resource="http://purl.org/dc/dcmitype/StillImage" /><dc:title></dc:title></cc:Work></rdf:RDF></metadata><defs
   id="defs4697" /><sodipodi:namedview
   pagecolor="#ffffff"
   bordercolor="#666666"
   borderopacity="1"
   objecttolerance="10"
   gridtolerance="10"
   guidetolerance="10"
   inkscape:pageopacity="0"
   inkscape:pageshadow="2"
   inkscape:window-width="2560"
   inkscape:window-height="1377"
   id="namedview4695"
   showgrid="false"
   fit-margin-top="0"
   fit-margin-left="0"
   fit-margin-right="0"
   fit-margin-bottom="0"
   inkscape:zoom="8.970293"
   inkscape:cx="34.753748"
   inkscape:cy="11.144117"
   inkscape:window-x="-8"
   inkscape:window-y="-8"
   inkscape:window-maximized="1"
   inkscape:current-layer="Layer_1"
   units="pt" />
<style
   type="text/css"
   id="style4678">
	.st0{fill:#EF4136;}
	.st1{fill:#3B6E8F;}
</style>







<g
   transform="matrix(0.79175258,0,0,0.79175258,-107.92674,-35.619731)"
   id="g3208"
   style="fill:#2b3838;fill-opacity:1"><g
     id="use3190"
     transform="translate(134.42309,59.894712)"><path
       inkscape:connector-curvature="0"
       style="stroke:none"
       d="M 1.890625,0 H 4.59375 v -8.59375 c 0,-0.875 -0.140625,-2.3125 -0.140625,-2.3125 H 4.5 c 0,0 0.671875,1.453125 1.234375,2.3125 L 11.375,0 h 2.6875 V -14.90625 H 11.375 v 8.609375 c 0,0.875 0.15625,2.3125 0.15625,2.3125 h -0.04687 c 0,0 -0.671875,-1.453125 -1.234375,-2.3125 L 4.59375,-14.90625 H 1.890625 Z m 0,0"
       id="path20508" /></g><g
     id="use3192"
     transform="translate(150.17302,59.894712)"><path
       inkscape:connector-curvature="0"
       style="stroke:none"
       d="m 0.5625,-3.09375 c 0,2.15625 1.71875,3.34375 3.640625,3.34375 2.4375,0 3.265625,-1.890625 3.25,-1.890625 H 7.5 c 0,0 -0.046875,0.34375 -0.046875,0.765625 V 0 H 9.90625 v -6.703125 c 0,-2.703125 -1.625,-4.265625 -4.453125,-4.265625 -2.53125,0 -4.1875,1.328125 -4.1875,1.328125 l 1,1.90625 c 0,0 1.40625,-1.015625 2.9375,-1.015625 1.1875,0 2.0625,0.46875 2.0625,1.890625 V -6.71875 H 6.90625 c -1.734375,0 -6.34375,0.234375 -6.34375,3.625 z m 2.6875,-0.125 c 0,-1.484375 2.203125,-1.671875 3.578125,-1.671875 H 7.28125 v 0.25 c 0,1.296875 -1,2.8125 -2.40625,2.8125 C 3.78125,-1.828125 3.25,-2.5 3.25,-3.21875 Z m 0,0"
       id="path20512" /></g><g
     id="use3194"
     transform="translate(161.32397,59.894712)"><path
       inkscape:connector-curvature="0"
       style="stroke:none"
       d="m 1.46875,0 h 2.671875 v -4.90625 c 0,-0.515625 0.03125,-1 0.1875,-1.4375 0.390625,-1.28125 1.453125,-2.1875 2.875,-2.1875 1.359375,0 1.703125,0.890625 1.703125,2.1875 V 0 h 2.640625 v -6.890625 c 0,-2.828125 -1.34375,-4.078125 -3.71875,-4.078125 -2.15625,0 -3.328125,1.328125 -3.796875,2.234375 H 3.984375 c 0,0 0.046875,-0.34375 0.046875,-0.734375 v -1.234375 h -2.5625 z m 0,0"
       id="path20536" /></g><g
     id="use3196"
     transform="translate(174.00791,59.894712)"><path
       inkscape:connector-curvature="0"
       style="stroke:none"
       d="m 0.671875,-5.359375 c 0,3.296875 2.625,5.609375 5.90625,5.609375 3.25,0 5.875,-2.3125 5.875,-5.609375 0,-3.265625 -2.625,-5.609375 -5.90625,-5.609375 -3.25,0 -5.875,2.34375 -5.875,5.609375 z m 2.703125,0 c 0,-1.96875 1.453125,-3.328125 3.203125,-3.328125 1.71875,0 3.171875,1.359375 3.171875,3.328125 0,2 -1.453125,3.34375 -3.171875,3.34375 -1.75,0 -3.203125,-1.34375 -3.203125,-3.34375 z m 0,0"
       id="path20520" /></g><g
     id="use3198"
     transform="translate(187.13284,59.894712)"><path
       inkscape:connector-curvature="0"
       style="stroke:none"
       d="m 0.5625,-1.328125 c 0,0 1.5,1.578125 4.15625,1.578125 2.546875,0 4.09375,-1.421875 4.09375,-3.21875 0,-3.4375 -5.203125,-3.25 -5.203125,-4.765625 0,-0.671875 0.671875,-0.953125 1.375,-0.953125 1.625,0 2.625,0.921875 2.625,0.921875 L 8.59375,-9.75 c 0,0 -1.1875,-1.21875 -3.59375,-1.21875 -2.3125,0 -4.09375,1.15625 -4.09375,3.15625 0,3.4375 5.203125,3.234375 5.203125,4.828125 0,0.625 -0.65625,0.96875 -1.40625,0.96875 -1.734375,0 -2.921875,-1.171875 -2.921875,-1.171875 z m 0,0"
       id="path20524" /></g><g
     id="use3200"
     transform="translate(196.5198,59.894712)"><path
       inkscape:connector-curvature="0"
       style="stroke:none"
       d="M 0.6875,-5.359375 C 0.6875,-2.25 2.96875,0.25 6.515625,0.25 c 2.875,0 4.40625,-1.734375 4.40625,-1.734375 L 9.890625,-3.375 c 0,0 -1.34375,1.359375 -3.15625,1.359375 -2.03125,0 -3.328125,-1.546875 -3.328125,-3.359375 0,-1.828125 1.28125,-3.3125 3.25,-3.3125 1.6875,0 2.796875,1.15625 2.796875,1.15625 L 10.625,-9.359375 c 0,0 -1.328125,-1.609375 -4.109375,-1.609375 -3.546875,0 -5.828125,2.5625 -5.828125,5.609375 z m 0,0"
       id="path20528" /></g><g
     id="use3202"
     transform="translate(207.88075,59.894712)"><path
       inkscape:connector-curvature="0"
       style="stroke:none"
       d="m 0.5625,-3.09375 c 0,2.15625 1.71875,3.34375 3.640625,3.34375 2.4375,0 3.265625,-1.890625 3.25,-1.890625 H 7.5 c 0,0 -0.046875,0.34375 -0.046875,0.765625 V 0 H 9.90625 v -6.703125 c 0,-2.703125 -1.625,-4.265625 -4.453125,-4.265625 -2.53125,0 -4.1875,1.328125 -4.1875,1.328125 l 1,1.90625 c 0,0 1.40625,-1.015625 2.9375,-1.015625 1.1875,0 2.0625,0.46875 2.0625,1.890625 V -6.71875 H 6.90625 c -1.734375,0 -6.34375,0.234375 -6.34375,3.625 z m 2.6875,-0.125 c 0,-1.484375 2.203125,-1.671875 3.578125,-1.671875 H 7.28125 v 0.25 c 0,1.296875 -1,2.8125 -2.40625,2.8125 C 3.78125,-1.828125 3.25,-2.5 3.25,-3.21875 Z m 0,0"
       id="path20516" /></g><g
     id="use3204"
     transform="translate(219.0317,59.894712)"><path
       inkscape:connector-curvature="0"
       style="stroke:none"
       d="m 1.328125,-3.34375 c 0,3.078125 1.828125,3.453125 3.296875,3.453125 0.4375,0 0.828125,-0.0625 0.828125,-0.0625 V -2.28125 c 0,0 -0.1875,0.015625 -0.390625,0.015625 -0.6875,0 -1.09375,-0.296875 -1.09375,-1.46875 V -14.90625 H 1.328125 Z m 0,0"
       id="path20504" /></g><g
     id="use3206"
     transform="translate(224.93267,59.894712)"><path
       inkscape:connector-curvature="0"
       style="stroke:none"
       d="m 0.71875,-5.359375 c 0,3.046875 2.203125,5.609375 5.75,5.609375 2.671875,0 4.296875,-1.53125 4.296875,-1.53125 L 9.75,-3.1875 c 0,0 -1.375,1.171875 -3.09375,1.171875 -1.59375,0 -3.046875,-0.96875 -3.21875,-2.828125 h 7.40625 c 0,0 0.0625,-0.71875 0.0625,-1.03125 0,-2.84375 -1.671875,-5.09375 -4.75,-5.09375 -3.1875,0 -5.4375,2.3125 -5.4375,5.609375 z m 2.8125,-1.3125 c 0.25,-1.390625 1.1875,-2.234375 2.5625,-2.234375 1.171875,0 2.078125,0.78125 2.125,2.234375 z m 0,0"
       id="path20532" /></g></g></svg>