<?xml version="1.0" encoding="UTF-8" standalone="no"?>
<!-- Created with Inkscape (http://www.inkscape.org/) -->

<svg
   xmlns:dc="http://purl.org/dc/elements/1.1/"
   xmlns:cc="http://creativecommons.org/ns#"
   xmlns:rdf="http://www.w3.org/1999/02/22-rdf-syntax-ns#"
   xmlns:svg="http://www.w3.org/2000/svg"
   xmlns="http://www.w3.org/2000/svg"
   xmlns:sodipodi="http://sodipodi.sourceforge.net/DTD/sodipodi-0.dtd"
   xmlns:inkscape="http://www.inkscape.org/namespaces/inkscape"
   width="55mm"
   height="10mm"
   viewBox="0 0 55 10"
   version="1.1"
   id="svg1175"
   inkscape:version="0.92.4 (5da689c313, 2019-01-14)"
   sodipodi:docname="signature-kw.svg">
  <defs
     id="defs1169" />
  <sodipodi:namedview
     id="base"
     pagecolor="#ffffff"
     bordercolor="#666666"
     borderopacity="1.0"
     inkscape:pageopacity="0.0"
     inkscape:pageshadow="2"
     inkscape:zoom="3.959798"
     inkscape:cx="48.297335"
     inkscape:cy="86.378344"
     inkscape:document-units="mm"
     inkscape:current-layer="g1742"
     showgrid="false"
     fit-margin-top="0"
     fit-margin-left="0"
     fit-margin-right="0"
     fit-margin-bottom="0"
     inkscape:window-width="2560"
     inkscape:window-height="1377"
     inkscape:window-x="-8"
     inkscape:window-y="-8"
     inkscape:window-maximized="1" />
  <metadata
     id="metadata1172">
    <rdf:RDF>
      <cc:Work
         rdf:about="">
        <dc:format>image/svg+xml</dc:format>
        <dc:type
           rdf:resource="http://purl.org/dc/dcmitype/StillImage" />
        <dc:title />
      </cc:Work>
    </rdf:RDF>
  </metadata>
  <g
     inkscape:label="Layer 1"
     inkscape:groupmode="layer"
     id="layer1"
     transform="translate(-65.309777,-119.98851)">
    <g
       id="g1742"
       transform="matrix(0.46794029,0,0,0.46794029,36.392274,68.387462)">
      <path
         inkscape:connector-curvature="0"
         id="path294-2"
         d="m 66.252005,116.31396 c 0.144708,-0.5855 -0.543079,-2.72836 -0.162666,-2.10177 1.465442,2.3876 3.231454,4.67349 4.028099,7.38923 0.411056,2.0478 0.682892,4.29493 -0.0024,6.30129 -0.327972,0.36801 -0.48886,0.87466 -0.846677,1.21708"
         style="fill:none;stroke:#000f55;stroke-width:1.32291663;stroke-linecap:round;stroke-linejoin:round;stroke-opacity:1" />
      <path
         inkscape:connector-curvature="0"
         id="path296-0"
         d="m 75.406598,115.99646 c 0.563005,-0.74792 -0.288601,-2.50441 -0.95251,-1.37583 -0.144904,2.95412 1.713111,6.13084 -0.07166,8.876 -0.744876,1.84089 -2.994121,1.59655 -4.539824,1.07503 -0.831334,-0.76872 1.599835,0.13049 2.071486,0.47355 0.847654,0.77179 1.313519,1.87047 1.799167,2.75167 0.356023,0.94961 1.248815,2.05734 2.330468,1.31683 1.783958,-1.2174 3.182707,-2.95381 4.594016,-4.56189 1.244973,-1.64952 1.990669,-3.69208 1.465276,-5.75887 -0.194525,-1.7349 -0.997239,-3.87088 -2.727667,-4.48982 -0.867857,0.95133 -0.470804,2.59397 -0.582093,3.82759 0.0644,3.545 -0.09032,7.08668 -0.04358,10.62535 -0.01572,-1.32403 -0.08259,-3.16738 1.192057,-3.86958 0.421576,1.00742 0.442343,2.64559 1.713783,3.23934 1.230101,0.9788 2.578907,-0.49355 3.355662,-1.35472 0.5416,-0.7947 1.143585,-2.08036 0.502502,-2.94298 -1.322305,-0.88707 -1.64914,1.11154 -1.558954,2.03869 -0.152061,1.45558 0.892652,3.41776 2.604032,2.8094 1.852644,0.15788 2.890523,-1.95199 2.553243,-3.52518 0.781759,0.0896 2.013643,0.68112 2.994436,0.0334 0.73034,0.15018 2.469666,-1.32924 1.986812,-0.60491 -0.671314,1.22621 -0.963496,3.22569 0.31042,4.16986 1.334799,0.13462 1.974376,-1.46609 2.581357,-2.41062 0.510857,-0.42429 0.679484,-3.2139 0.688591,-1.92278 0.04928,1.24351 -0.341532,2.87422 0.567227,3.81328 1.105239,-0.0435 1.559779,-1.45357 2.059155,-2.3558 0.26753,-1.42986 1.24689,-1.10593 1.45908,0.12425 0.38168,0.6658 0.30578,3.28943 0.55109,1.35387 0.31428,-0.97829 0.2022,-2.57132 1.51266,-2.57095 1.31798,-0.009 1.71615,1.85375 1.42875,2.8575 0.13006,0.58983 0.37922,-1.90231 1.00356,-2.40102 0.63087,-1.42877 1.59816,-0.65902 1.65927,0.58796 0.242,1.82758 2.18822,2.73566 3.88287,2.54333 0.71088,-0.0274 1.42095,-0.10062 2.13264,-0.0953"
         style="fill:none;stroke:#000f55;stroke-width:1.32291663;stroke-linecap:round;stroke-linejoin:round;stroke-opacity:1" />
      <path
         inkscape:connector-curvature="0"
         id="path298-1"
         d="m 97.825177,120.72718 c 0.0652,-0.004 0.288917,-0.0183 0.335579,-0.0212"
         style="fill:none;stroke:#000f55;stroke-width:1.32291663;stroke-linecap:round;stroke-linejoin:round;stroke-opacity:1" />
      <path
         inkscape:connector-curvature="0"
         id="path300-5"
         d="m 114.72367,119.85938 c -0.20369,-0.84013 0.26203,-2.05984 0.77375,-2.94765 0.55571,-1.46817 0.82952,-2.96658 0.9196,-4.51359 0.18264,2.79862 0.41004,5.62344 0.79933,8.41667 0.43542,2.51741 0.6732,5.11675 1.37025,7.56418 0.50864,1.58673 1.93518,0.8323 2.54934,-0.23718 1.72097,-2.62969 2.25062,-5.82728 2.7808,-8.86912 -7.9e-4,-1.96588 0.53767,-4.00619 0.2261,-5.92206 0.18684,3.84542 0.0139,7.71218 0.17508,11.5512 0.37655,0.95137 -0.0231,2.57599 1.09493,3.00088 1.52113,-0.42571 1.88722,-2.30111 2.50637,-3.57656 0.87008,-3.04506 2.47793,-6.13531 1.57861,-9.36765 0.72446,-2.29407 -0.51982,0.90559 -0.32789,0.45588"
         style="fill:none;stroke:#000f55;stroke-width:1.32291663;stroke-linecap:round;stroke-linejoin:round;stroke-opacity:1" />
      <path
         inkscape:connector-curvature="0"
         id="path302-5"
         d="m 127.84702,126.10354 c 0.93228,-0.23595 1.70254,-1.12545 2.43415,-1.6933 1.23999,-0.62865 0.97932,-1.73514 0.58209,0.1058 -0.0359,1.25897 -0.6153,3.12209 0.74083,3.86295 2.24594,-0.45911 2.97349,-3.06068 3.7589,-4.91406 1.11879,-2.60694 1.52331,-5.59742 1.0747,-8.38459 -0.43132,-1.66195 -1.54372,-0.74784 -1.62372,0.54433 -1.04961,2.8417 -0.84604,5.92973 -0.61695,8.89137 0.15056,1.39092 1.11961,3.46999 2.83176,2.74262 1.94761,-0.68993 2.7558,-2.67483 3.42983,-4.46011 0.96292,-2.15913 1.27432,-4.61997 1.0913,-6.95661 -0.26215,-1.012 -0.18375,-2.32912 -1.05582,-3.02048 -1.02066,1.87206 -1.5587,3.99955 -1.73386,6.13878 -0.35038,1.8482 -0.18405,3.79185 0.0256,5.62359 0.62247,0.85029 0.46775,2.18022 1.44365,2.7368 1.27922,0.62542 2.88121,-0.19283 3.4925,-1.48167 0.80891,-1.05238 -0.0321,-2.07317 -1.11199,-1.31482 -0.82364,0.94332 -0.511,2.66242 0.15948,3.64315 0.94134,1.07802 2.16088,0.009 2.6517,-0.94268 0.68024,-0.67535 0.74288,-2.66891 1.72912,-2.5795 0.94593,0.95853 0.63087,2.50454 0.91085,3.73388 0.45308,-1.30779 1.06854,-2.71868 2.16958,-3.59836 0.79535,0.15081 0.56001,2.19813 0.71699,2.2933 0.0125,-1.3652 0.91819,-2.5277 1.82301,-3.40455 0.25926,1.17763 -0.42541,2.89525 0.9525,3.65125 1.34615,0.0433 1.78749,-1.62404 2.57475,-2.45071 0.5153,-0.5131 0.69273,-2.92515 0.79177,-2.12029 1.32672,1.10318 3.03548,2.1223 3.72432,3.76156 0.0347,1.67992 -2.05605,2.14233 -3.38666,2.44985 -1.67738,-0.0387 -3.35294,-0.18023 -5.0271,0"
         style="fill:none;stroke:#000f55;stroke-width:1.32291663;stroke-linecap:round;stroke-linejoin:round;stroke-opacity:1" />
      <path
         inkscape:connector-curvature="0"
         id="path304-5"
         d="m 131.23367,119.96521 c 0.75258,-0.0625 -0.19859,0.15626 0.31752,0"
         style="fill:none;stroke:#000f55;stroke-width:1.32291663;stroke-linecap:round;stroke-linejoin:round;stroke-opacity:1" />
    </g>
  </g>
</svg>
